# xmcd
#
# Track frame offsets:
#  150
#  12357
#  21409
#  31322
#  39947
#  52748
#  65873
#  77643
#  87439
#  96593
#  104412
#  121396
#  133050
#  143659
#  154083
#  165609
#
# Disc length: 2354 seconds
#
# Revision: 8
# Processed by: cddbd v1.5.1PL0 Copyright (c) Steve Scherf et al.
# Submitted via: Collectorz.com Music Collector 6.9
#
DISCID=d4093010
DTITLE=johnny cash - Love, God, Murder - Disc 1
DYEAR=2000
DGENRE=Country
TTITLE0=I Walk The Line (Mono)
TTITLE1=Oh, What A Dream
TTITLE2=All Over Again
TTITLE3=A Little At A Time
TTITLE4=My Old Faded Rose
TTITLE5=Happiness Is You
TTITLE6=Flesh And Blood
TTITLE7=I Tremble For You
TTITLE8=I Feel Better All Over
TTITLE9='cause I Love You
TTITLE10=Ballad Of Barbara
TTITLE11=Ring Of Fire
TTITLE12=My Shoes Keep Walking Back To You
TTITLE13=While I've Got It On My Mind
TTITLE14=I Still Miss Someone
TTITLE15=The One Rose (That's Left In My Heart) (Mono)
EXTD=
EXTT0=
EXTT1=
EXTT2=
EXTT3=
EXTT4=
EXTT5=
EXTT6=
EXTT7=
EXTT8=
EXTT9=
EXTT10=
EXTT11=
EXTT12=
EXTT13=
EXTT14=
EXTT15=
PLAYORDER=
